<?xml version="1.0" encoding="utf-8"?>
<!-- Generator: Adobe Illustrator 19.1.0, SVG Export Plug-In . SVG Version: 6.00 Build 0)  -->
<svg version="1.1" id="Capa_1" xmlns="http://www.w3.org/2000/svg" xmlns:xlink="http://www.w3.org/1999/xlink" x="0px" y="0px"
	 viewBox="-454 257 50 48" enable-background="new -454 257 50 48" xml:space="preserve">
<g>
	
		<polygon fill="none" stroke="#187DD3" stroke-width="2" stroke-linecap="round" stroke-linejoin="round" stroke-miterlimit="10" points="
		-428.9,262.8 -405.8,271.2 -425.8,291.5 -449.9,280.8 	"/>
	<path fill="none" stroke="#187DD3" stroke-width="2" stroke-linecap="round" stroke-linejoin="round" stroke-miterlimit="10" d="
		M-449.9,280.8c-1.8,0.6-4.7,5.9,1.1,8.4c6.9,2.9,23.3,10,23.3,10l18.1-18.4"/>
	<path fill="none" stroke="#187DD3" stroke-width="2" stroke-linecap="round" stroke-linejoin="round" stroke-miterlimit="10" d="
		M-408.6,274.3c0,0-2.2,4.2,0.1,7.6"/>
	<path fill="none" stroke="#187DD3" stroke-width="2" stroke-linecap="round" stroke-linejoin="round" stroke-miterlimit="10" d="
		M-425.9,292.1c0,0-2.2,3.7,0.1,6.6"/>
</g>
<g>
	<path fill="#187DD3" d="M-430.6,271.2l1.2,0.5l-0.6,9.2l-1.2-0.5l0.2-2.7l-3-1.4l-1.9,2l-1.1-0.4L-430.6,271.2z M-430.9,276.7
		l0.3-4l-2.8,2.9L-430.9,276.7z"/>
	<path fill="#187DD3" d="M-424.5,279.1c0.2,0.1,0.4,0,0.6-0.1c0.1-0.1,0.2-0.2,0.2-0.3c0.1-0.3,0.1-0.6,0-0.9
		c-0.2-0.3-0.5-0.5-0.9-0.7c-0.5-0.2-0.9-0.2-1.3-0.1c-0.2,0.1-0.4,0.3-0.5,0.6l-0.9-0.4c0.3-0.7,0.8-1.1,1.3-1.2s1.1,0,1.7,0.2
		c0.7,0.3,1.2,0.7,1.5,1.1c0.3,0.4,0.3,0.9,0.1,1.5l-1.4,3.3c0,0.1-0.1,0.2,0,0.3s0.1,0.1,0.2,0.2c0,0,0.1,0,0.1,0.1
		c0,0.1,0.1,0,0.2,0l-0.4,0.8c-0.2,0-0.3,0-0.4-0.1c-0.1,0-0.2-0.1-0.3-0.1c-0.3-0.1-0.5-0.4-0.6-0.7c0-0.2,0-0.4,0.1-0.6
		c-0.3,0.2-0.7,0.3-1.1,0.3c-0.5,0-0.9,0-1.3-0.2c-0.5-0.2-0.9-0.6-1.1-1.1c-0.2-0.5-0.2-0.9,0-1.4c0.2-0.5,0.6-0.9,1-1
		c0.5-0.1,1-0.1,1.5,0L-424.5,279.1z M-427.7,280.8c0.1,0.2,0.3,0.4,0.6,0.6c0.3,0.1,0.7,0.2,1.1,0.2c0.7,0,1.1-0.3,1.4-0.9l0.3-0.8
		c-0.2,0-0.3,0-0.5,0c-0.2,0-0.4-0.1-0.6-0.1l-0.6-0.2c-0.4-0.1-0.7-0.1-0.9-0.1c-0.4,0-0.6,0.2-0.8,0.6
		C-427.8,280.3-427.8,280.6-427.7,280.8z"/>
</g>
</svg>
