<?xml version="1.0" encoding="utf-8"?>
<!-- Generator: Adobe Illustrator 19.1.0, SVG Export Plug-In . SVG Version: 6.00 Build 0)  -->
<svg version="1.1" id="Capa_1" xmlns="http://www.w3.org/2000/svg" xmlns:xlink="http://www.w3.org/1999/xlink" x="0px" y="0px"
	 viewBox="-371 283 48 48" style="enable-background:new -371 283 48 48;" xml:space="preserve">
<style type="text/css">
	.st0{fill:#F16146;}
	.st1{fill:#069D49;}
	.st2{fill:#FFCD05;}
	.st3{fill:#44C6E9;}
	.st4{fill:#153851;}
</style>
<g>
	<g>
		<path class="st0" d="M-353.5,315.1c-0.7,0-1.2,0.6-1.2,1.2c0,0.7,0.6,1.2,1.2,1.2h5.6v-2.5H-353.5z"/>
		<path class="st1" d="M-359,310.4c-0.7,0-1.2,0.6-1.2,1.2s0.6,1.2,1.2,1.2h11.1v-2.5H-359z"/>
		<path class="st2" d="M-360.8,305.7c-0.7,0-1.2,0.6-1.2,1.2c0,0.7,0.6,1.2,1.2,1.2h12.9v-2.5H-360.8z"/>
		<path class="st3" d="M-356.8,301.1c-0.7,0-1.2,0.6-1.2,1.2s0.6,1.2,1.2,1.2h8.9v-2.5H-356.8z"/>
	</g>
	<path class="st4" d="M-343,296.4h-3.2h-4.9c0,1.5,1.6,2.5,3,2.5h1.9h6.2C-340,297.4-341.6,296.4-343,296.4z"/>
	<g>
		<path class="st4" d="M-345.6,302.1c0-0.6,0.5-1,1-1h5.8c4.1,0,6.8,2.2,6.8,5.8v0.1c0,3.9-3.3,6-7.1,6h-4.4v3.7c0,0.6-0.5,1-1,1
			c-0.5,0-1-0.5-1-1V302.1z M-339.1,311c3,0,5-1.6,5-4v-0.1c0-2.6-1.9-4-4.9-4h-4.6v8H-339.1z"/>
	</g>
</g>
</svg>
