<?xml version="1.0" encoding="utf-8"?>
<!-- Generator: Adobe Illustrator 19.1.0, SVG Export Plug-In . SVG Version: 6.00 Build 0)  -->
<svg version="1.1" id="Capa_1" xmlns="http://www.w3.org/2000/svg" xmlns:xlink="http://www.w3.org/1999/xlink" x="0px" y="0px"
	 viewBox="0 0 48 48" enable-background="new 0 0 48 48" xml:space="preserve">
<rect id="Fondo" fill="#141724" width="48" height="48"/>
<g id="Simbolo_5_">
	<g>
		<path fill="#FFFFFF" d="M31.7,18.6h-5.8c-0.6,0-1.1,0.4-1.1,1v13c0,0.5,0.5,1,1.1,1c0.6,0,1.1-0.4,1.1-1v-2.9h4.7
			c0.7,0,2.6-0.1,4.2-1.1c1.6-1,2.5-2.5,2.5-4.4C38.4,20.4,34.9,18.6,31.7,18.6z M31.7,27.7h-4.7v-6.9h4.7c0.5,0,4.5,0.1,4.5,3.5
			C36.2,27.5,32.4,27.7,31.7,27.7z"/>
		<g>
			<path fill="#EE6145" d="M17.3,31.4c-0.6,0-1.1,0.5-1.1,1.1c0,0.6,0.5,1.1,1.1,1.1h5.1v-2.2H17.3z"/>
			<path fill="#029C49" d="M12.3,27.1c-0.6,0-1.1,0.5-1.1,1.1c0,0.6,0.5,1.1,1.1,1.1h10.1v-2.2H12.3z"/>
			<path fill="#FFCC07" d="M10.7,22.9c-0.6,0-1.1,0.5-1.1,1.1c0,0.6,0.5,1.1,1.1,1.1h11.7v-2.2H10.7z"/>
			<path fill="#3BC4F1" d="M14.4,18.6c-0.6,0-1.1,0.5-1.1,1.1c0,0.6,0.5,1.1,1.1,1.1h8.1v-2.2H14.4z"/>
		</g>
	</g>
	<path fill="#FFFFFF" d="M26.9,14.4H24h-4.4c0,1.4,1.4,2.2,2.7,2.2H24h5.6C29.6,15.3,28.2,14.4,26.9,14.4z"/>
</g>
<g>
</g>
<g>
</g>
<g>
</g>
<g>
</g>
<g>
</g>
<g>
</g>
<g>
</g>
<g>
</g>
<g>
</g>
<g>
</g>
<g>
</g>
<g>
</g>
<g>
</g>
<g>
</g>
<g>
</g>
</svg>
