<?xml version="1.0" encoding="utf-8"?>
<!-- Generator: Adobe Illustrator 19.1.0, SVG Export Plug-In . SVG Version: 6.00 Build 0)  -->
<svg version="1.1" id="Capa_1" xmlns="http://www.w3.org/2000/svg" xmlns:xlink="http://www.w3.org/1999/xlink" x="0px" y="0px"
	 viewBox="3.7 -1.6 39.8 51.6" enable-background="new 3.7 -1.6 39.8 51.6" xml:space="preserve">
<path fill="#187DD3" d="M9.1,40.6c-1.4-2.9-1.6-5.3-2-10.5C7,29.4,7,28.6,6.9,27.7c-0.5-6.8-1.1-13.4-1.1-13.4s0,0,0-0.1
	C5.8,12.5,7.2,11,9,11c0.9,0,1.7,0.4,2.2,0.9L11.1,8c0-2,1.8-3.7,3.8-3.7c1.1,0,3,0.5,3,1.3V4.3c0-2.1,1.4-3.7,3.4-3.7
	s3.5,1.6,3.5,3.7v1.2c0.6-1,1.7-1.7,3-1.7c2.1,0,3.7,1.7,3.7,4L31,29.9l3-3.1c0.8-0.8,1.9-1.3,3-1.3s2.2,0.4,3,1.3
	c1.7,1.7,1.7,4.4,0,6.1c0,0-2.8,3.1-6.7,7L33,40.4c-3.7,3.7-6.9,6.9-13.3,6.9C13,47.4,10.8,44,9.1,40.6z M35.3,27.8l-4.4,4.6
	c-0.2,0.2-0.6,0.3-0.9,0.2s-0.5-0.4-0.5-0.7L30,7.7c0-1.4-0.9-2.3-2.1-2.3s-2.1,1-2.1,2.4l-0.5,14.8c0,0.4-0.4,0.9-0.8,0.9
	s-0.8-0.5-0.8-0.9L23.3,4.3c0-1.2-0.5-2.1-1.7-2.1c-1.1,0-1.6,0.9-1.6,2.1v16.5c0,0.4-0.7,1.1-1.2,1.1c-0.4,0-1-0.5-1-0.9L17.1,8
	c0-1.1-1.1-2.1-2.3-2.1S12.7,6.8,12.7,8l0.5,17c0,0.4-0.3,0.8-0.7,0.8s-0.8-0.3-0.8-0.7l-1.1-10.8v-0.1c0-0.9-0.7-1.6-1.6-1.6
	c-0.9,0-1.6,0.7-1.6,1.5c0,0.5,0.5,6.8,1,13.4c0.1,0.9,0.1,1.6,0.2,2.4c0.4,5,0.5,7.3,1.8,9.9c1.6,3.2,3.4,5.9,9.1,5.9
	s8.6-2.9,12.2-6.5l0.6-0.6c3.9-3.9,6.6-6.9,6.6-7c0.5-0.5,0.8-1.2,0.8-1.9c0-0.7-0.3-1.4-0.8-1.9S37.7,27,37,27
	C36.5,27,35.8,27.3,35.3,27.8z"/>
</svg>
