<?xml version="1.0" encoding="utf-8"?>
<!-- Generator: Adobe Illustrator 19.1.0, SVG Export Plug-In . SVG Version: 6.00 Build 0)  -->
<svg version="1.1" id="Capa_1" xmlns="http://www.w3.org/2000/svg" xmlns:xlink="http://www.w3.org/1999/xlink" x="0px" y="0px"
	 viewBox="-375 281.4 39.8 51.6" style="enable-background:new -375 281.4 39.8 51.6;" xml:space="preserve">
<style type="text/css">
	.st0{fill:#187DD3;stroke:#237BC5;stroke-width:0.5;stroke-miterlimit:10;}
</style>
<path class="st0" d="M-369.5,323.8c-1.4-2.9-1.6-5.3-2-10.5c-0.1-0.7-0.1-1.5-0.2-2.4c-0.5-6.8-1.1-13.4-1.1-13.4s0,0,0-0.1
	c0-1.7,1.4-3.2,3.2-3.2c0.9,0,1.7,0.4,2.2,0.9l-0.1-3.9c0-2,1.8-3.7,3.8-3.7c1.1,0,3,0.5,3,1.3v-1.3c0-2.1,1.4-3.7,3.4-3.7
	s3.5,1.6,3.5,3.7v1.2c0.6-1,1.7-1.7,3-1.7c2.1,0,3.7,1.7,3.7,4l-0.5,22.1l3-3.1c0.8-0.8,1.9-1.3,3-1.3c1.1,0,2.2,0.4,3,1.3
	c1.7,1.7,1.7,4.4,0,6.1c0,0-2.8,3.1-6.7,7l-0.3,0.5c-3.7,3.7-6.9,6.9-13.3,6.9C-365.6,330.6-367.8,327.2-369.5,323.8z M-343.3,311
	l-4.4,4.6c-0.2,0.2-0.6,0.3-0.9,0.2c-0.3-0.1-0.5-0.4-0.5-0.7l0.5-24.2c0-1.4-0.9-2.3-2.1-2.3c-1.2,0-2.1,1-2.1,2.4l-0.5,14.8
	c0,0.4-0.4,0.9-0.8,0.9c-0.4,0-0.8-0.5-0.8-0.9l-0.4-18.3c0-1.2-0.5-2.1-1.7-2.1c-1.1,0-1.6,0.9-1.6,2.1V304c0,0.4-0.7,1.1-1.2,1.1
	c-0.4,0-1-0.5-1-0.9l-0.7-13c0-1.1-1.1-2.1-2.3-2.1c-1.2,0-2.1,0.9-2.1,2.1l0.5,17c0,0.4-0.3,0.8-0.7,0.8c-0.4,0-0.8-0.3-0.8-0.7
	l-1.1-10.8v-0.1c0-0.9-0.7-1.6-1.6-1.6c-0.9,0-1.6,0.7-1.6,1.5c0,0.5,0.5,6.8,1,13.4c0.1,0.9,0.1,1.6,0.2,2.4c0.4,5,0.5,7.3,1.8,9.9
	c1.6,3.2,3.4,5.9,9.1,5.9c5.7,0,8.6-2.9,12.2-6.5l0.6-0.6c3.9-3.9,6.6-6.9,6.6-7c0.5-0.5,0.8-1.2,0.8-1.9s-0.3-1.4-0.8-1.9
	s-1.2-0.8-1.9-0.8C-342.1,310.2-342.8,310.5-343.3,311z"/>
</svg>
