<?xml version="1.0" encoding="utf-8"?>
<!-- Generator: Adobe Illustrator 19.1.0, SVG Export Plug-In . SVG Version: 6.00 Build 0)  -->
<svg version="1.1" id="Capa_1" xmlns="http://www.w3.org/2000/svg" xmlns:xlink="http://www.w3.org/1999/xlink" x="0px" y="0px"
	 viewBox="1 0 50 48" enable-background="new 1 0 50 48" xml:space="preserve">
<g id="Capa_1_1_" display="none">
	<g display="inline">
		<g>
			
				<polygon fill="none" stroke="#FFFFFF" stroke-width="2" stroke-linecap="round" stroke-linejoin="round" stroke-miterlimit="10" points="
				-427.9,262.8 -404.8,271.2 -424.8,291.5 -448.9,280.8 			"/>
			<path fill="none" stroke="#FFFFFF" stroke-width="2" stroke-linecap="round" stroke-linejoin="round" stroke-miterlimit="10" d="
				M-448.9,280.8c-1.8,0.6-4.7,5.9,1.1,8.4c6.9,2.9,23.3,10,23.3,10l18.1-18.4"/>
			<path fill="none" stroke="#FFFFFF" stroke-width="2" stroke-linecap="round" stroke-linejoin="round" stroke-miterlimit="10" d="
				M-407.6,274.3c0,0-2.2,4.2,0.1,7.6"/>
			<path fill="none" stroke="#FFFFFF" stroke-width="2" stroke-linecap="round" stroke-linejoin="round" stroke-miterlimit="10" d="
				M-424.9,292.1c0,0-2.2,3.7,0.1,6.6"/>
		</g>
		<g>
			<path fill="#FFFFFF" d="M-429.6,271.2l1.2,0.5l-0.6,9.2l-1.2-0.5l0.2-2.7l-3-1.4l-1.9,2l-1.1-0.4L-429.6,271.2z M-429.9,276.7
				l0.3-4l-2.8,2.9L-429.9,276.7z"/>
			<path fill="#FFFFFF" d="M-423.5,279.1c0.2,0.1,0.4,0,0.6-0.1c0.1-0.1,0.2-0.2,0.2-0.3c0.1-0.3,0.1-0.6,0-0.9
				c-0.2-0.3-0.5-0.5-0.9-0.7c-0.5-0.2-0.9-0.2-1.3-0.1c-0.2,0.1-0.4,0.3-0.5,0.6l-0.9-0.4c0.3-0.7,0.8-1.1,1.3-1.2s1.1,0,1.7,0.2
				c0.7,0.3,1.2,0.7,1.5,1.1s0.3,0.9,0.1,1.5l-1.4,3.3c0,0.1-0.1,0.2,0,0.3s0.1,0.1,0.2,0.2c0,0,0.1,0,0.1,0.1s0.1,0,0.2,0l-0.4,0.8
				c-0.2,0-0.3,0-0.4-0.1c-0.1,0-0.2-0.1-0.3-0.1c-0.3-0.1-0.5-0.4-0.6-0.7c0-0.2,0-0.4,0.1-0.6c-0.3,0.2-0.7,0.3-1.1,0.3
				c-0.5,0-0.9,0-1.3-0.2c-0.5-0.2-0.9-0.6-1.1-1.1s-0.2-0.9,0-1.4s0.6-0.9,1-1c0.5-0.1,1-0.1,1.5,0L-423.5,279.1z M-426.7,280.8
				c0.1,0.2,0.3,0.4,0.6,0.6c0.3,0.1,0.7,0.2,1.1,0.2c0.7,0,1.1-0.3,1.4-0.9l0.3-0.8c-0.2,0-0.3,0-0.5,0s-0.4-0.1-0.6-0.1l-0.6-0.2
				c-0.4-0.1-0.7-0.1-0.9-0.1c-0.4,0-0.6,0.2-0.8,0.6C-426.8,280.3-426.8,280.6-426.7,280.8z"/>
		</g>
	</g>
</g>
<g id="Capa_2" display="none">
	<g display="inline">
		<rect x="-449.4" y="259.6" fill="#FFFFFF" width="20" height="20"/>
		<rect x="-426.6" y="259.6" fill="#FFFFFF" width="20" height="20"/>
		<rect x="-449.4" y="282.4" fill="#FFFFFF" width="20" height="20"/>
		<rect x="-426.6" y="282.4" fill="#FFFFFF" width="20" height="20"/>
	</g>
</g>
<g id="Capa_3" display="none">
	<g display="inline">
		<g>
			
				<polyline fill="none" stroke="#FFFFFF" stroke-width="6" stroke-linecap="round" stroke-linejoin="round" stroke-miterlimit="10" points="
				-429.1,290.1 -437.6,270.6 -446.1,290.1 			"/>
			
				<line fill="none" stroke="#FFFFFF" stroke-width="6" stroke-linecap="round" stroke-linejoin="round" stroke-miterlimit="10" x1="-443.4" y1="284.4" x2="-431.8" y2="284.4"/>
		</g>
		<g>
			<path fill="#FFFFFF" d="M-424.1,284.2h-1.2c-0.7,0-1.3-0.6-1.3-1.3c0-0.7,0.6-1.3,1.3-1.3h1.6l0.8-4.4h-1.5
				c-0.7,0-1.3-0.6-1.3-1.3c0-0.7,0.6-1.3,1.3-1.3h1.9l0.5-3c0.1-0.7,0.7-1.1,1.3-1.1c0.8,0,1.4,0.8,1.3,1.5l-0.5,2.5h3.9l0.5-3
				c0.1-0.7,0.7-1.1,1.3-1.1c0.8,0,1.4,0.8,1.3,1.5l-0.4,2.5h1.3c0.7,0,1.3,0.6,1.3,1.3c0,0.7-0.6,1.3-1.3,1.3h-1.6l-0.8,4.4h1.4
				c0.7,0,1.3,0.6,1.3,1.3c0,0.7-0.6,1.3-1.3,1.3h-1.9l-0.5,3.1c-0.1,0.6-0.7,1.1-1.3,1.1c-0.8,0-1.4-0.8-1.3-1.5l0.5-2.6h-3.9
				l-0.5,3.1c-0.1,0.6-0.6,1.1-1.3,1.1c-0.8,0-1.4-0.7-1.3-1.5L-424.1,284.2z M-417.1,281.6l0.8-4.4h-3.9l-0.8,4.4H-417.1z"/>
		</g>
	</g>
</g>
<g id="Capa_4">
	<g>
		<g>
			<g>
				<path fill="#187DD3" stroke="#187DD3" stroke-miterlimit="10" d="M4,29.3c-0.2,0-0.4-0.1-0.5-0.3c-0.1-0.3,0-0.6,0.3-0.8
					c1.4-0.7,3.1-1.3,5.1-1.8C8.9,25.6,9,25,9,24.7c-0.4-0.7-1.8-3-1.9-6.2v-0.1c-0.1-3.2,1.8-5,5-5.2c0.1,0,0.1,0,0.2,0l0,0
					c3.3,0.1,5.1,2,5,5.2v0.1c-0.1,3.1-1.5,5.5-1.9,6.2c0,0.3,0.1,0.9,0.1,1.7c1,0.2,1.9,0.5,2.7,0.8c0.3,0.1,0.5,0.4,0.4,0.7
					c-0.1,0.3-0.4,0.5-0.7,0.3c-0.9-0.3-1.9-0.6-3-0.9c-0.3-0.1-0.4-0.3-0.4-0.6c0-1.3-0.1-2.2-0.1-2.2c0-0.1,0-0.3,0.1-0.4
					c0,0,1.7-2.5,1.9-5.7v-0.1c0-2.6-1.3-3.9-4-4l0,0c-2.7,0.1-4,1.5-4,4v0.1c0.1,3.3,1.8,5.7,1.9,5.7c0.1,0.1,0.1,0.3,0.1,0.4
					c0,0-0.1,0.8-0.1,2.2c0,0.3-0.2,0.5-0.4,0.6c-2.1,0.5-3.9,1.1-5.3,1.8C4.2,29.3,4.1,29.3,4,29.3z"/>
			</g>
			<g>
				<path fill="#187DD3" stroke="#187DD3" stroke-miterlimit="10" d="M47.8,29.1c-0.1,0-0.2,0-0.2-0.1c-1.4-0.6-3-1.2-5-1.6
					c-0.3-0.1-0.4-0.3-0.4-0.6c0-1.3-0.1-2.2-0.1-2.2c0-0.1,0-0.3,0.1-0.4c0,0,1.7-2.5,1.9-5.7v-0.1c0-2.6-1.3-3.9-4-4l0,0
					c-2.7,0.1-4,1.5-4,4v0.1c0.1,3.3,1.8,5.7,1.9,5.7c0.1,0.1,0.1,0.3,0.1,0.4c0,0-0.1,0.8-0.1,2.2c0,0.3-0.2,0.5-0.4,0.6
					c-1.3,0.3-2.3,0.7-3.2,1c-0.3,0.1-0.6,0-0.7-0.3s0-0.6,0.3-0.7c0.8-0.3,1.7-0.6,2.9-0.9c0-0.8,0.1-1.4,0.1-1.7
					c-0.4-0.7-1.8-3-1.9-6.2v-0.1c-0.1-3.2,1.8-5,5-5.2c0.1,0,0.1,0,0.2,0l0,0c3.3,0.1,5.1,2,5,5.2v0.1c-0.1,3.1-1.5,5.5-1.9,6.2
					c0,0.3,0.1,0.9,0.1,1.7c1.8,0.5,3.4,1,4.8,1.6c0.3,0.1,0.4,0.5,0.3,0.8C48.2,29,48,29.1,47.8,29.1z"/>
			</g>
			<g>
				<path fill="#187DD3" stroke="#187DD3" stroke-miterlimit="10" d="M10.7,40C10.6,40,10.6,40,10.7,40c-0.1,0-0.1,0-0.2,0
					c-0.3-0.1-0.4-0.3-0.4-0.6c0-0.2,0.1-0.5,0.3-0.5c0.2-0.1,0.5-0.1,0.6,0.1c0.2,0.2,0.2,0.5,0.1,0.7C11.1,39.9,10.9,40,10.7,40z"
					/>
			</g>
			<g>
				<path fill="#187DD3" stroke="#187DD3" stroke-miterlimit="10" d="M10.7,40c-0.1,0-0.3-0.1-0.4-0.2s-0.2-0.3-0.2-0.4
					c0-1.5-0.1-2.9-0.2-4.1c-0.1-1.9-0.2-2.8-0.1-3.2c0.5-2.4,2.3-3,6.2-4.3c0.6-0.2,1.2-0.4,1.8-0.6c1.1-0.4,2.4-0.7,3.7-1.1
					c0-1.3,0.1-2.1,0.2-2.5c-0.5-0.8-2.5-4.1-2.7-8.5c0-3.3,1.8-7.1,6.9-7.1c6.7,0,6.9,6.4,6.9,7.1c-0.2,4.4-2.2,7.7-2.7,8.5
					c0.1,0.4,0.1,1.3,0.2,2.5c1.3,0.3,2.6,0.7,3.7,1.1c0.6,0.2,1.2,0.4,1.8,0.6c3.9,1.3,5.7,1.9,6.2,4.3c0.1,0.4,0,1.3-0.1,3.2
					c-0.1,1.2-0.2,2.7-0.2,4.1c0,0.2-0.1,0.3-0.2,0.4c-0.2,0.2-0.6,0.2-0.8,0c-0.2-0.2-0.2-0.4-0.1-0.6c0-1.4,0.1-2.8,0.2-4
					c0.1-1.3,0.2-2.6,0.1-2.9c-0.3-1.7-1.5-2.1-5.5-3.4c-0.6-0.2-1.2-0.4-1.8-0.6c-1.2-0.4-2.6-0.8-4-1.2c-0.3-0.1-0.4-0.3-0.4-0.6
					c0-1.9-0.2-3-0.2-3c0-0.1,0-0.3,0.1-0.4c0,0,2.4-3.4,2.6-8.1c0-1-0.3-5.9-5.8-5.9s-5.7,5-5.7,6c0.2,4.6,2.6,8,2.6,8
					c0.1,0.1,0.1,0.3,0.1,0.4c0,0-0.2,1.2-0.2,3c0,0.3-0.2,0.5-0.4,0.6c-1.5,0.3-2.8,0.7-4,1.2c-0.7,0.2-1.3,0.4-1.8,0.6
					c-4,1.3-5.1,1.8-5.5,3.4c-0.1,0.3,0,1.6,0.1,2.9c0.1,1.2,0.2,2.6,0.2,4.1c0,0.2,0,0.4-0.1,0.5C11,39.9,10.8,40,10.7,40z"/>
			</g>
		</g>
	</g>
</g>
</svg>
